<?xml version="1.0" encoding="UTF-8"?>
<svg xmlns="http://www.w3.org/2000/svg" xmlns:xlink="http://www.w3.org/1999/xlink" width="583.43pt" height="335.64pt" viewBox="0 0 583.43 335.64" version="1.1">
<defs>
<clipPath id="clip1">
  <path d="M 9 91 L 583.429688 91 L 583.429688 327 L 9 327 Z M 9 91 "/>
</clipPath>
<clipPath id="clip2">
  <path d="M 138 127 L 553 127 L 553 335.640625 L 138 335.640625 Z M 138 127 "/>
</clipPath>
</defs>
<g id="surface1">
<g clip-path="url(#clip1)" clip-rule="nonzero">
<path style=" stroke:none;fill-rule:nonzero;fill:rgb(13.299561%,11.799622%,12.199402%);fill-opacity:1;" d="M 583.433594 91.328125 L 9.917969 301.394531 L 63.378906 326.1875 "/>
</g>
<path style=" stroke:none;fill-rule:nonzero;fill:rgb(13.299561%,11.799622%,12.199402%);fill-opacity:1;" d="M 81.066406 171.855469 C 79.199219 175.234375 77.496094 178.835938 75.957031 182.632813 C 73.863281 187.808594 72.589844 191.476563 71.820313 194.0625 C 73.492188 191.171875 75.695313 186.5625 78.4375 179.21875 C 79.402344 176.636719 80.277344 174.175781 81.066406 171.855469 M 37.707031 278.902344 C 30.582031 281.511719 23.644531 281.554688 17.078125 279.035156 C 10.089844 276.375 5.191406 271.34375 2.535156 264.085938 C -2.628906 249.988281 0.105469 231.449219 10.65625 208.976563 C 18.964844 191.246094 29.441406 175.542969 41.792969 162.300781 C 56.019531 147.066406 67.523438 137.984375 76.960938 134.527344 C 85.355469 131.453125 92.121094 133.210938 96.414063 139.453125 C 96.65625 139.335938 96.898438 139.230469 97.132813 139.144531 C 99.929688 138.121094 102.605469 139.375 103.640625 142.195313 C 104.710938 145.125 102.5625 147.671875 99.945313 149.890625 C 100.582031 158.453125 98.519531 169.167969 93.671875 182.546875 C 87.824219 198.601563 81.152344 207.808594 73.265625 210.695313 C 67.378906 212.851563 62.613281 210.734375 60.523438 205.035156 C 58.027344 198.210938 60.519531 187.835938 68.144531 173.324219 C 74.226563 161.851563 80.230469 153.1875 86.015625 147.535156 C 85.949219 147 85.835938 146.507813 85.671875 146.058594 C 85.171875 144.695313 84.8125 143.710938 81.84375 144.796875 C 73.429688 147.878906 63.234375 157.433594 51.535156 173.1875 C 39.914063 188.832031 29.839844 205.683594 21.582031 223.28125 C 15.03125 241.128906 13.308594 254.539063 16.464844 263.152344 C 18.003906 267.351563 20.667969 270.785156 29.691406 267.480469 C 35.78125 265.25 41.960938 261.066406 48.066406 255.050781 C 52.402344 250.746094 56.703125 245.496094 60.832031 239.445313 L 66.644531 230.527344 L 67.777344 230.113281 C 69.898438 229.335938 72.914063 229.886719 74.421875 234.003906 C 76.234375 238.949219 74.128906 245.207031 67.800781 253.707031 C 64.125 258.683594 59.675781 263.59375 54.589844 268.289063 C 49.316406 273.160156 43.636719 276.730469 37.707031 278.902344 "/>
<path style=" stroke:none;fill-rule:nonzero;fill:rgb(13.299561%,11.799622%,12.199402%);fill-opacity:1;" d="M 143.261719 145.871094 C 141.355469 150.085938 138.761719 156.230469 135.238281 165.199219 C 139.453125 156.523438 141.898438 150.308594 143.261719 145.871094 M 116.175781 247.265625 C 110.164063 249.464844 105.242188 247.152344 103.019531 241.074219 C 102.195313 238.824219 101.691406 235.996094 101.507813 232.539063 L 95.1875 242.304688 L 95.140625 242.371094 C 87.136719 253.609375 80.613281 260.035156 75.203125 262.015625 C 72.710938 262.929688 70.242188 261.792969 69.335938 259.3125 C 68.863281 258.023438 68.28125 254.734375 73.085938 252.058594 C 74.734375 251.171875 76.511719 249.632813 78.414063 247.460938 C 80.972656 244.617188 85.125 238.8125 90.789063 230.179688 C 94.9375 224.015625 99.277344 217.257813 103.710938 210.039063 C 107.140625 196.097656 113.046875 180.035156 121.269531 162.28125 C 134.050781 134.691406 140.417969 129.421875 144.535156 127.914063 C 148.699219 126.386719 152.40625 128.183594 153.984375 132.480469 C 156.71875 139.941406 153.132813 153.058594 142.699219 173.75 C 136.5 185.960938 129.277344 198.351563 121.234375 210.589844 C 120.148438 212.257813 118.46875 216.113281 116.671875 224.933594 C 115.285156 231.527344 115.101563 235.054688 115.226563 236.910156 C 115.363281 236.863281 115.515625 236.808594 115.679688 236.75 C 118.214844 235.820313 120.761719 237.070313 121.730469 239.714844 C 122.398438 241.53125 122.558594 244.925781 116.175781 247.265625 "/>
<path style=" stroke:none;fill-rule:nonzero;fill:rgb(13.299561%,11.799622%,12.199402%);fill-opacity:1;" d="M 177.867188 224.582031 C 169.867188 227.511719 166.589844 223.148438 165.449219 220.765625 C 161.734375 226.636719 158.289063 230.050781 154.894531 231.292969 C 149.925781 233.113281 145.636719 230.957031 143.695313 225.664063 C 142.96875 223.675781 142.5625 221.472656 142.480469 219.0625 L 141.140625 221.359375 L 141.097656 221.421875 C 131.707031 236.09375 124.628906 243.914063 118.828125 246.035156 C 116.335938 246.949219 113.851563 245.773438 112.921875 243.234375 C 112.574219 242.285156 111.765625 238.992188 115.957031 236.386719 C 117.476563 235.480469 119.160156 234.101563 121.019531 232.25 C 122.523438 230.742188 126.023438 226.191406 134.101563 213.113281 C 137.125 208.269531 141.515625 200.722656 147.164063 190.664063 C 148.109375 188.5625 149.652344 185.734375 151.886719 182.023438 L 151.988281 181.851563 L 152.105469 181.695313 C 153.484375 179.878906 155.050781 178.644531 156.757813 178.023438 C 162.476563 175.925781 165.695313 178.410156 166.804688 181.433594 C 167.554688 183.484375 167.832031 186.964844 161.585938 202.449219 C 159.332031 208.039063 158.140625 211.945313 157.546875 214.652344 C 159.414063 211.46875 162.152344 205.957031 166.003906 196.425781 C 175.851563 172.046875 177.523438 171.433594 179.460938 170.726563 C 180.617188 170.304688 182.480469 170.046875 184.808594 171.226563 C 187.03125 172.359375 187.988281 173.933594 188.398438 175.058594 C 188.976563 176.636719 189.523438 178.128906 182.351563 197.039063 C 178.523438 207.136719 177.398438 211.972656 177.109375 214.21875 C 181.628906 213.335938 183.03125 216.4375 183.285156 217.125 C 183.945313 218.925781 184.117188 222.292969 177.867188 224.582031 "/>
<path style=" stroke:none;fill-rule:nonzero;fill:rgb(13.299561%,11.799622%,12.199402%);fill-opacity:1;" d="M 245.210938 111.660156 C 244.3125 113.5 243.316406 115.601563 242.214844 118.007813 C 243.375 115.789063 244.371094 113.671875 245.210938 111.660156 M 229.027344 162.503906 C 228.347656 162.792969 226.976563 163.589844 225.925781 166.355469 C 225.042969 168.664063 224.914063 170.601563 225.527344 172.273438 C 225.773438 172.953125 226.183594 174.070313 228.03125 174.488281 C 230.0625 167.972656 229.824219 164.617188 229.203125 162.921875 C 229.140625 162.753906 229.082031 162.613281 229.027344 162.503906 M 218.894531 180.597656 C 215.753906 192.210938 215.929688 196.660156 216.347656 198.308594 C 218.222656 197.347656 221.378906 194.171875 224.9375 184.113281 C 222.273438 183.351563 220.320313 182.070313 218.894531 180.597656 M 180.394531 223.488281 C 177.902344 224.398438 175.425781 223.242188 174.503906 220.734375 C 173.765625 218.714844 174.117188 215.859375 177.324219 213.902344 C 181.515625 211.3125 186.621094 205.144531 192.472656 195.589844 C 199.15625 184.679688 204.921875 172.183594 209.597656 158.4375 C 216.800781 137.261719 223.78125 120.726563 230.351563 109.292969 C 239.945313 92.6875 244.402344 89.375 247.214844 88.34375 C 252.230469 86.507813 256.476563 88.453125 258.296875 93.421875 C 259.894531 97.777344 258.703125 104.753906 254.558594 115.378906 C 251.234375 123.851563 244.027344 135.316406 232.523438 150.433594 C 232.523438 150.433594 232.015625 151.0625 231.785156 151.34375 C 233.3125 151.453125 234.8125 151.878906 236.253906 152.613281 C 239.144531 154.101563 241.1875 156.441406 242.328125 159.5625 C 244.992188 166.832031 243.945313 176.128906 239.222656 187.183594 C 234.425781 198.503906 228.285156 205.605469 220.976563 208.28125 C 213.042969 211.1875 206.785156 208.195313 203.808594 200.070313 C 203.496094 199.21875 203.238281 198.28125 203.03125 197.261719 C 201.039063 200.808594 199.441406 203.5 198.210938 205.382813 C 191.695313 215.550781 185.863281 221.480469 180.394531 223.488281 "/>
<path style=" stroke:none;fill-rule:nonzero;fill:rgb(13.299561%,11.799622%,12.199402%);fill-opacity:1;" d="M 309.476563 177.742188 C 307.988281 178.285156 306.191406 178.292969 303.992188 177.761719 C 301.078125 177.125 299.230469 175.792969 298.503906 173.8125 C 297.828125 171.957031 297.121094 170.039063 308.757813 140.769531 L 329.421875 88.484375 C 336.089844 70.359375 337.835938 62.414063 338.203125 59.003906 C 335.964844 61.09375 331.796875 66.109375 324.59375 78.160156 C 318.703125 88.035156 311.015625 104.734375 301.738281 127.785156 C 301.085938 129.378906 299.980469 131.574219 297.824219 132.359375 C 294.355469 133.632813 291.882813 131.789063 291.058594 129.535156 C 290.453125 127.878906 289.878906 126.3125 297.984375 105.160156 C 301.703125 95.613281 306.996094 84.949219 313.726563 73.445313 C 323.003906 57.605469 330.339844 49.128906 336.808594 46.757813 C 342.414063 44.703125 347.0625 47.019531 349.238281 52.953125 C 350.308594 55.878906 351.023438 61.011719 348.496094 73.085938 C 363.789063 46.046875 370.988281 40.367188 375.277344 38.796875 C 380.882813 36.742188 385.480469 38.921875 387.566406 44.621094 C 388.328125 46.691406 388.929688 49.933594 388.222656 56.234375 C 407.304688 18.996094 416.5625 11.5 422.101563 9.472656 C 428.039063 7.296875 432.839844 9.429688 434.941406 15.175781 C 436.488281 19.394531 436.523438 24.625 435.050781 30.722656 C 434.640625 32.300781 433.4375 36.894531 411.128906 88.128906 C 398.160156 120.390625 395.769531 130.925781 395.503906 134.328125 C 397.503906 133.804688 401.257813 133.144531 402.503906 136.550781 C 403.105469 138.1875 403.722656 142.28125 396.519531 144.921875 C 390.34375 147.179688 385.363281 144.988281 383.1875 139.054688 C 381.203125 133.628906 380.335938 121.992188 395.648438 83.664063 C 399.539063 73.945313 407.363281 56.371094 418.898438 31.433594 C 420.757813 27.429688 421.855469 24.546875 422.496094 22.488281 C 419.574219 26.113281 414.519531 33.40625 406.003906 48.066406 C 397.1875 63.246094 390.71875 75.238281 386.789063 83.710938 C 383.003906 91.871094 378.164063 103.378906 372.410156 117.910156 C 367.207031 131.09375 363.175781 141.152344 360.433594 147.808594 C 355.699219 159.277344 355.519531 159.34375 353.792969 159.976563 C 352.132813 160.582031 350.226563 160.417969 347.953125 159.480469 C 345.566406 158.496094 344.09375 157.160156 343.449219 155.394531 C 342.730469 153.4375 341.917969 151.222656 360.496094 100.625 C 371.476563 70.710938 375.019531 57.585938 376.058594 51.847656 C 373.992188 54.269531 370.640625 58.707031 365.375 66.8125 C 358.386719 77.636719 351.003906 90.890625 343.441406 106.203125 L 324.101563 147.300781 L 317.664063 162.617188 C 311.632813 176.949219 311.21875 177.101563 309.476563 177.742188 "/>
<path style=" stroke:none;fill-rule:nonzero;fill:rgb(13.299561%,11.799622%,12.199402%);fill-opacity:1;" d="M 462.117188 77.171875 C 460.921875 78.183594 460.070313 80.113281 459.53125 81.714844 C 458.476563 84.851563 458.246094 87.398438 458.863281 89.082031 C 459.027344 89.527344 459.203125 90.011719 459.96875 90.203125 C 460.652344 88.40625 461.242188 86.289063 461.734375 83.875 C 462.390625 80.3125 462.320313 78.28125 462.117188 77.171875 M 447.769531 113.496094 C 448.628906 113.183594 451.578125 111.285156 456.394531 99.980469 C 454.261719 99.3125 452.453125 98.042969 451.03125 96.207031 C 446.722656 105.777344 446.699219 110.746094 447.640625 113.300781 C 447.671875 113.382813 447.695313 113.453125 447.722656 113.511719 C 447.734375 113.507813 447.753906 113.5 447.769531 113.496094 M 448.621094 126.519531 C 441.59375 129.09375 436.035156 126.402344 433.371094 119.136719 C 433.0625 118.285156 432.824219 117.320313 432.660156 116.234375 L 428.703125 122.429688 L 428.660156 122.492188 C 422.277344 131.601563 416.90625 136.859375 412.242188 138.566406 C 409.753906 139.476563 407.277344 138.320313 406.355469 135.8125 C 405.414063 133.238281 406.335938 130.628906 408.699219 129.160156 L 408.78125 129.113281 C 411.277344 127.65625 413.269531 126.066406 414.714844 124.394531 C 417.589844 121.117188 422.015625 114.617188 427.886719 105.039063 L 441.6875 81.628906 C 445.488281 74.652344 447.046875 73.058594 448.738281 72.4375 C 450.144531 71.921875 451.730469 71.835938 453.472656 72.183594 C 455.558594 69.511719 457.765625 67.765625 460.175781 66.882813 C 465.496094 64.9375 469.886719 67.09375 471.921875 72.652344 C 474.265625 79.0625 472.644531 88.78125 466.964844 102.382813 C 461.121094 116.246094 455.121094 124.136719 448.621094 126.519531 "/>
<path style=" stroke:none;fill-rule:nonzero;fill:rgb(13.299561%,11.799622%,12.199402%);fill-opacity:1;" d="M 505.777344 104.476563 C 499.460938 106.789063 494.488281 104.875 492.464844 99.363281 C 491.511719 96.757813 491.21875 93.230469 491.582031 88.644531 L 485.523438 98.464844 C 478.4375 109.980469 472.152344 116.621094 466.300781 118.761719 C 463.808594 119.675781 461.320313 118.488281 460.386719 115.933594 C 459.496094 113.5 460.347656 111.019531 462.609375 109.457031 L 462.683594 109.40625 L 462.765625 109.359375 C 463.699219 108.777344 465.515625 107.453125 468.871094 104.421875 C 470.6875 102.382813 474.925781 96.589844 484.808594 80.6875 C 490.855469 71.023438 494.640625 64.75 496.066406 62.035156 C 497.710938 58.890625 499.371094 55.117188 501.03125 50.773438 L 481.835938 58.664063 L 481.765625 58.6875 C 476.273438 60.699219 474.597656 56.625 474.425781 56.15625 C 472.988281 52.230469 477.53125 49.789063 479.242188 48.871094 C 482.523438 47.039063 487.351563 44.714844 493.539063 41.984375 C 499.289063 39.492188 503.570313 37.5625 506.3125 36.222656 L 511.851563 20.8125 C 516.941406 6.914063 518.734375 5.328125 520.714844 4.605469 C 523.324219 3.648438 526.964844 4.171875 528.65625 8.785156 C 529.34375 10.664063 529.5625 13.855469 524.898438 28.757813 C 527.007813 27.890625 528.921875 27.144531 530.613281 26.523438 C 536.800781 24.257813 538.683594 27.335938 539.214844 28.761719 C 540.929688 33.460938 534.691406 36.203125 529.671875 38.40625 L 519.84375 42.378906 L 511.296875 67.84375 C 506.054688 84.535156 504.726563 91.429688 504.464844 94.246094 C 509.015625 93.289063 510.441406 96.453125 510.699219 97.152344 C 511.113281 98.292969 511.996094 102.199219 505.777344 104.476563 "/>
<path style=" stroke:none;fill-rule:nonzero;fill:rgb(13.299561%,11.799622%,12.199402%);fill-opacity:1;" d="M 557.695313 42.160156 C 556.503906 43.175781 555.648438 45.105469 555.109375 46.707031 C 554.054688 49.84375 553.824219 52.390625 554.441406 54.074219 C 554.601563 54.519531 554.78125 55.003906 555.546875 55.195313 C 556.230469 53.398438 556.824219 51.28125 557.3125 48.867188 C 557.972656 45.304688 557.898438 43.273438 557.695313 42.160156 M 543.347656 78.484375 C 544.203125 78.171875 547.15625 76.277344 551.976563 64.972656 C 549.839844 64.304688 548.027344 63.035156 546.609375 61.195313 C 542.300781 70.769531 542.28125 75.738281 543.214844 78.292969 C 543.242188 78.375 543.273438 78.445313 543.300781 78.503906 Z M 544.199219 91.507813 C 537.171875 94.085938 531.613281 91.390625 528.949219 84.125 C 528.636719 83.273438 528.402344 82.3125 528.238281 81.226563 L 524.28125 87.421875 L 524.238281 87.484375 C 517.851563 96.59375 512.484375 101.851563 507.824219 103.558594 C 505.332031 104.46875 502.855469 103.3125 501.933594 100.804688 C 500.992188 98.230469 501.910156 95.621094 504.28125 94.152344 L 504.359375 94.105469 C 506.851563 92.648438 508.847656 91.058594 510.292969 89.386719 C 513.167969 86.109375 517.59375 79.605469 523.46875 70.03125 L 537.265625 46.621094 C 541.0625 39.640625 542.625 38.046875 544.316406 37.429688 C 545.722656 36.910156 547.308594 36.828125 549.050781 37.175781 C 551.136719 34.5 553.34375 32.757813 555.753906 31.875 C 561.070313 29.929688 565.464844 32.085938 567.5 37.648438 C 569.84375 44.050781 568.222656 53.777344 562.546875 67.375 C 556.699219 81.238281 550.703125 89.128906 544.199219 91.507813 "/>
<path style=" stroke:none;fill-rule:nonzero;fill:rgb(13.299561%,11.799622%,12.199402%);fill-opacity:1;" d="M 46.289063 229.738281 L 47.5 227.886719 C 45.71875 225.46875 44.035156 223.019531 42.464844 220.539063 C 40.832031 223.675781 39.242188 226.824219 37.730469 230.011719 C 36.371094 233.78125 35.34375 237.070313 34.574219 239.933594 C 35.132813 240.667969 35.683594 241.398438 36.261719 242.125 C 39.59375 238.75 42.976563 234.582031 46.289063 229.738281 "/>
<path style=" stroke:none;fill-rule:nonzero;fill:rgb(13.299561%,11.799622%,12.199402%);fill-opacity:1;" d="M 447.089844 54.253906 C 449.3125 52.660156 451.664063 51.382813 454.164063 50.46875 C 455.21875 50.085938 456.277344 49.78125 457.335938 49.523438 C 457.980469 46.925781 459.15625 44.316406 460.980469 41.832031 C 457.863281 40.136719 454.691406 38.484375 451.46875 36.886719 C 450.804688 38.996094 449.320313 43.050781 445.089844 53.246094 C 445.757813 53.585938 446.429688 53.914063 447.089844 54.253906 "/>
<path style=" stroke:none;fill-rule:nonzero;fill:rgb(13.299561%,11.799622%,12.199402%);fill-opacity:1;" d="M 27.84375 151.675781 C 41.460938 76.238281 149.398438 17.484375 280.550781 17.484375 C 309.402344 17.484375 337.132813 20.332031 362.980469 25.570313 C 365.144531 24.140625 367.214844 23.132813 369.261719 22.382813 C 372.570313 21.171875 375.925781 20.558594 379.238281 20.558594 C 382.101563 20.558594 384.851563 21.011719 387.429688 21.871094 C 389.109375 19.195313 390.71875 16.773438 392.265625 14.5625 C 357.617188 5.03125 319.691406 0.00390625 280.550781 0.00390625 C 209.574219 0.00390625 142.585938 16.503906 91.925781 46.472656 C 38.386719 78.136719 8.902344 121.234375 8.902344 167.820313 C 8.902344 170.484375 9.007813 173.132813 9.199219 175.765625 C 14.859375 167.113281 21.085938 159.066406 27.84375 151.675781 "/>
<g clip-path="url(#clip2)" clip-rule="nonzero">
<path style=" stroke:none;fill-rule:nonzero;fill:rgb(13.299561%,11.799622%,12.199402%);fill-opacity:1;" d="M 528.703125 135.222656 C 532.632813 145.722656 534.71875 156.625 534.71875 167.820313 C 534.71875 250.851563 420.921875 318.160156 280.550781 318.160156 C 237.734375 318.160156 197.402344 311.886719 162.007813 300.828125 L 138.703125 311.351563 C 180.917969 327.171875 229.710938 335.640625 280.550781 335.640625 C 351.523438 335.640625 418.515625 319.136719 469.171875 289.171875 C 522.710938 257.503906 552.195313 214.40625 552.195313 167.820313 C 552.195313 154.175781 549.648438 140.835938 544.726563 127.988281 "/>
</g>
</g>
</svg>
